# xmcd CD database file
#
# Track frame offsets:
#	150
#	20082
#	33042
#	53157
#	68577
#	88615
#	104115
#	118100
#	137960
#	149272
#
# Disc length: 2344 seconds
#
# Revision: 0
# Processed by: cddbd v1.4PL0 Copyright (c) Steve Scherf et al.
# Submitted via: CDex 1.50
#
DISCID=8e09260a
DTITLE=Jungle Room - Jungle Room
DYEAR=2001
DGENRE=Jazz
TTITLE0=Soul Shake
TTITLE1=And Her Tears Flowed Like Wine
TTITLE2=Sunday in Central Park
TTITLE3=Thunder Road
TTITLE4=Beyond the Sea
TTITLE5=Surrender
TTITLE6=Argyle Socks
TTITLE7=Be My Baby Cha Cha
TTITLE8=Come On-a My House
TTITLE9=I Wanna Know
EXTD=YEAR: 2001
EXTT0=
EXTT1=
EXTT2=
EXTT3=
EXTT4=
EXTT5=
EXTT6=
EXTT7=
EXTT8=
EXTT9=
PLAYORDER=
